<?xml version="1.0" encoding="UTF-8"?>
<!DOCTYPE svg PUBLIC "-//W3C//DTD SVG 1.1//EN" "http://www.w3.org/Graphics/SVG/1.1/DTD/svg11.dtd">
<!-- Creator: CorelDRAW 2019 (64-Bit) -->
<svg xmlns="http://www.w3.org/2000/svg" xml:space="preserve" width="30mm" height="30mm" version="1.1" style="shape-rendering:geometricPrecision; text-rendering:geometricPrecision; image-rendering:optimizeQuality; fill-rule:evenodd; clip-rule:evenodd"
viewBox="0 0 3000 3000"
 xmlns:xlink="http://www.w3.org/1999/xlink"
 xmlns:xodm="http://www.corel.com/coreldraw/odm/2003">
 <defs>
  <style type="text/css">
   <![CDATA[
    .str0 {stroke:#2B2D43;stroke-width:21.33;stroke-miterlimit:10}
    .fil1 {fill:#FEFEFE;fill-rule:nonzero}
    .fil0 {fill:#FEC237;fill-rule:nonzero}
    .fil4 {fill:#F89B3E;fill-rule:nonzero}
    .fil3 {fill:#F8DA33;fill-rule:nonzero}
    .fil5 {fill:#2A2A28;fill-rule:nonzero}
    .fil2 {fill:#2B2D43;fill-rule:nonzero}
   ]]>
  </style>
 </defs>
 <g id="Capa_x0020_1">
  <metadata id="CorelCorpID_0Corel-Layer"/>
  <g id="_968061664">
   <path class="fil0" d="M1488.7 2949.17c-792.84,0 -1437.87,-645.03 -1437.87,-1437.87 0,-792.84 645.03,-1437.87 1437.87,-1437.87 792.84,0 1437.87,645.03 1437.87,1437.87 0,792.84 -645.03,1437.87 -1437.87,1437.87z"/>
   <path class="fil1" d="M1488.7 11.3c-202.44,0 -398.9,39.67 -583.9,117.93 -178.64,75.55 -339.05,183.7 -476.77,321.41 -137.7,137.72 -245.85,298.12 -321.4,476.76 -78.25,185 -117.93,381.46 -117.93,583.9 0,202.45 39.68,398.9 117.93,583.92 75.55,178.62 183.7,339.03 321.4,476.75 137.72,137.72 298.13,245.84 476.77,321.41 185,78.25 381.46,117.92 583.9,117.92 202.44,0 398.9,-39.67 583.9,-117.92 178.65,-75.57 339.05,-183.69 476.77,-321.41 137.7,-137.72 245.85,-298.13 321.4,-476.75 78.26,-185.02 117.93,-381.47 117.93,-583.92 0,-202.44 -39.67,-398.9 -117.93,-583.9 -75.55,-178.64 -183.7,-339.04 -321.4,-476.76 -137.72,-137.71 -298.12,-245.86 -476.77,-321.41 -185,-78.26 -381.46,-117.93 -583.9,-117.93zm0 124.27c759.8,0 1375.73,615.93 1375.73,1375.73 0,759.8 -615.93,1375.74 -1375.73,1375.74 -759.8,0 -1375.74,-615.94 -1375.74,-1375.74 0,-759.8 615.94,-1375.73 1375.74,-1375.73z"/>
   <path class="fil1" d="M1488.7 2924.32c-779.14,0 -1413.02,-633.88 -1413.02,-1413.02 0,-779.14 633.88,-1413.01 1413.02,-1413.01 779.14,0 1413.01,633.87 1413.01,1413.01 0,779.14 -633.87,1413.02 -1413.01,1413.02z"/>
   <path class="fil2" d="M1488.7 61.01c-195.76,0 -385.69,38.35 -564.54,114 -172.71,73.05 -327.81,177.61 -460.98,310.77 -133.17,133.18 -237.72,288.27 -310.77,460.98 -75.65,178.85 -114,368.78 -114,564.54 0,195.75 38.35,385.7 114,564.55 73.05,172.7 177.6,327.8 310.77,460.96 133.17,133.18 288.27,237.73 460.98,310.79 178.85,75.64 368.78,114 564.54,114 195.76,0 385.69,-38.36 564.54,-114 172.71,-73.06 327.8,-177.61 460.98,-310.79 133.17,-133.16 237.72,-288.26 310.77,-460.96 75.65,-178.85 114,-368.8 114,-564.55 0,-195.76 -38.35,-385.69 -114,-564.54 -73.05,-172.71 -177.6,-327.8 -310.77,-460.98 -133.18,-133.16 -288.27,-237.72 -460.98,-310.77 -178.85,-75.65 -368.78,-114 -564.54,-114zm0 74.56c759.8,0 1375.73,615.94 1375.73,1375.73 0,759.8 -615.93,1375.74 -1375.73,1375.74 -759.8,0 -1375.74,-615.94 -1375.74,-1375.74 0,-759.79 615.94,-1375.73 1375.74,-1375.73z"/>
   <path class="fil1" d="M1488.7 2847.07c-736.55,0 -1335.77,-599.22 -1335.77,-1335.77 0,-736.55 599.22,-1335.77 1335.77,-1335.77 736.55,0 1335.77,599.22 1335.77,1335.77 0,736.55 -599.22,1335.77 -1335.77,1335.77z"/>
   <path class="fil0" d="M1488.7 135.57c-759.8,0 -1375.74,615.94 -1375.74,1375.73 0,759.8 615.94,1375.74 1375.74,1375.74 759.8,0 1375.73,-615.94 1375.73,-1375.74 0,-759.79 -615.93,-1375.73 -1375.73,-1375.73zm0 79.92c346.13,0 671.53,134.79 916.27,379.53 244.75,244.75 379.54,570.16 379.54,916.28 0,346.13 -134.79,671.53 -379.54,916.28 -244.74,244.75 -570.14,379.53 -916.27,379.53 -346.13,0 -671.53,-134.78 -916.27,-379.53 -244.75,-244.75 -379.54,-570.15 -379.54,-916.28 0,-346.12 134.79,-671.53 379.54,-916.28 244.74,-244.74 570.14,-379.53 916.27,-379.53z"/>
   <path class="fil2 str0" d="M2459.86 1945.16c16.53,4.97 27.85,5.96 40.91,3.07 23.59,-5.22 41.56,-21.13 50.62,-45.18 17.13,-45.46 -9.84,-87.87 -70.21,-110.62 -59.87,-22.55 -108.03,-8.7 -124.91,36.1 -15.05,39.94 1.76,76.76 43.73,94.84l12.14 -32.22c-23.05,-10.95 -31.7,-29.08 -23.97,-49.6 9.65,-25.59 39.35,-31.54 80.02,-16.21 41.19,15.52 59.85,40.44 50.04,66.47 -4.32,11.48 -12.5,19.23 -23.79,22.04 -6.44,1.6 -11.97,1.53 -22.69,-0.24l-11.89 31.55z"/>
   <path class="fil2 str0" d="M2439.54 2121.21c13.41,-19.97 16.73,-41.6 9.67,-63.95 -7.35,-23.39 -25.64,-46.17 -50.39,-62.78 -24.74,-16.6 -52.98,-25.05 -77.18,-22.84 -23.72,1.97 -41.98,13 -55.65,33.36 -13.67,20.37 -16.95,41.45 -9.79,64.15 6.92,22.54 25.86,46.32 49.24,62.02 25.88,17.36 53.9,25.66 78.33,23.6 24.07,-2.02 41.98,-13 55.77,-33.56zm-29.18 -19.31c-16.17,24.08 -49.12,24.12 -84.98,0.05 -33.82,-22.7 -46.11,-53.95 -30.34,-77.44 15.9,-23.69 49.34,-23.97 84.08,-0.66 34.72,23.31 47.14,54.36 31.24,78.05z"/>
   <polygon class="fil2 str0" points="2259.41,2268.84 2133.59,2172.74 2107.04,2196.11 2186.86,2332.74 2084.22,2216.22 2057.68,2239.6 2189.41,2389.15 2229.4,2353.93 2147.24,2214.99 2275.4,2313.4 2315.04,2278.49 2183.31,2128.94 2156.77,2152.32 "/>
   <path class="fil2 str0" d="M1987.2 2368.09l-39.1 20.4c-28.01,14.61 -33.98,47.02 -15.27,82.89 18.46,35.39 45.93,45.73 77.71,29.15l67.32 -35.11 -92.18 -176.7 -31.35 16.35 32.87 63.02zm15.8 30.3l27.69 53.09 -29.27 15.27c-16.72,8.72 -28.88,4.27 -38.37,-13.91 -9.35,-17.94 -6.04,-30.46 10.68,-39.18l29.27 -15.27z"/>
   <path class="fil2 str0" d="M1729.21 2437.81l-21.76 -35.63 -34.96 9.81 111.06 175.83 37.69 -10.58 4.95 -208.39 -34.74 9.75 -0.26 41.82 -61.98 17.39zm18.54 30.29l43.14 -12.11 -0.52 81.07 -42.62 -68.96z"/>
   <polygon class="fil2 str0" points="1510.13,2426.81 1474.81,2428.52 1484.44,2627.58 1519.77,2625.87 1513.21,2490.43 1587.84,2622.58 1624.11,2620.82 1614.47,2421.75 1579.14,2423.47 1585.8,2561.09 "/>
   <polygon class="fil2 str0" points="1302.23,2483.71 1228.05,2598.64 1267.13,2605.09 1313.81,2523.58 1334.13,2616.16 1372.99,2622.57 1337.13,2489.47 1349.16,2416.64 1314.26,2410.88 "/>
   <polygon class="fil2 str0" points="1025.68,2306.26 994.41,2289.74 901.31,2465.95 932.58,2482.48 995.92,2362.58 992.83,2514.31 1024.94,2531.28 1118.04,2355.06 1086.77,2338.54 1022.4,2460.36 "/>
   <path class="fil2 str0" d="M825.55 2210.49l17.74 -37.79 -27.45 -23.77 -85.52 189.56 29.59 25.63 176.62 -110.7 -27.28 -23.62 -35.03 22.82 -48.67 -42.13zm-15.06 32.16l33.87 29.32 -67.93 44.25 34.06 -73.57z"/>
   <polygon class="fil2 str0" points="627.71,2167.88 737.36,2053.66 717.11,2024.66 572.37,2088.6 699.7,1999.72 679.45,1970.72 516.04,2084.8 546.54,2128.49 693.83,2062.48 581.64,2178.76 611.87,2222.07 775.28,2107.99 755.04,2078.99 "/>
   <polygon class="fil2 str0" points="546.35,1890.69 516.68,1813.93 484.8,1826.25 514.48,1903.01 472.4,1919.27 440.35,1836.36 408.47,1848.68 453.28,1964.59 639.17,1892.73 592.83,1772.86 560.96,1785.18 594.54,1872.06 "/>
   <path class="fil2 str0" d="M517.54 1077.43c-16.53,-4.97 -27.85,-5.95 -40.91,-3.07 -23.59,5.23 -41.56,21.14 -50.62,45.19 -17.13,45.45 9.84,87.87 70.21,110.61 59.87,22.56 108.03,8.7 124.91,-36.09 15.05,-39.94 -1.76,-76.76 -43.73,-94.84l-12.14 32.21c23.04,10.95 31.7,29.08 23.97,49.6 -9.65,25.6 -39.35,31.54 -80.02,16.22 -41.19,-15.52 -59.85,-40.44 -50.04,-66.48 4.32,-11.47 12.5,-19.22 23.78,-22.03 6.45,-1.6 11.98,-1.54 22.7,0.23l11.89 -31.55z"/>
   <path class="fil2 str0" d="M537.97 901.22c-13.4,19.97 -16.73,41.6 -9.67,63.95 7.34,23.39 25.63,46.18 50.37,62.79 24.74,16.61 52.98,25.06 77.18,22.85 23.72,-1.97 41.99,-12.99 55.66,-33.35 13.67,-20.36 16.96,-41.44 9.8,-64.14 -6.92,-22.54 -25.85,-46.33 -49.23,-62.03 -25.88,-17.37 -53.89,-25.67 -78.32,-23.61 -24.07,2.01 -41.99,12.99 -55.79,33.54zm29.19 19.32c16.17,-24.08 49.11,-24.11 84.97,-0.03 33.82,22.7 46.1,53.95 30.33,77.44 -15.91,23.69 -49.35,23.96 -84.07,0.65 -34.73,-23.32 -47.14,-54.38 -31.23,-78.06z"/>
   <polygon class="fil2 str0" points="717.98,753.77 843.8,849.88 870.34,826.5 790.53,689.87 893.17,806.39 919.71,783.01 787.98,633.46 747.99,668.69 830.15,807.62 701.98,709.21 662.35,744.13 794.08,893.67 820.62,870.3 "/>
   <path class="fil2 str0" d="M990.04 654.62l39.09 -20.4c28.01,-14.62 33.97,-47.02 15.25,-82.89 -18.46,-35.39 -45.93,-45.72 -77.71,-29.14l-67.31 35.13 92.21 176.68 31.35 -16.36 -32.88 -63.02zm-15.81 -30.29l-27.71 -53.08 29.27 -15.27c16.73,-8.73 28.89,-4.29 38.37,13.89 9.36,17.94 6.06,30.46 -10.67,39.18l-29.26 15.28z"/>
   <path class="fil2 str0" d="M1248.35 584.76l21.75 35.63 34.97 -9.8 -111.03 -175.85 -37.69 10.57 -4.99 208.38 34.74 -9.74 0.27 -41.81 61.98 -17.38zm-18.53 -30.3l-43.14 12.1 0.53 -81.07 42.61 68.97z"/>
   <polygon class="fil2 str0" points="1467.26,595.81 1502.59,594.1 1492.95,395.04 1457.62,396.75 1464.18,532.19 1389.55,400.05 1353.28,401.8 1362.92,600.87 1398.25,599.16 1391.59,461.53 "/>
   <polygon class="fil2" points="1675.16,538.9 1749.35,423.97 1710.26,417.51 1663.58,499.02 1643.26,406.45 1604.41,400.03 1640.26,533.13 1628.23,605.96 1663.13,611.73 "/>
   <polygon class="fil2" points="1757.52,433.35 1757.92,430.89 1719.44,424.52 1664.08,498.59 1635.45,410.65 1589.88,403.12 1633.97,538.25 1622.53,607.56 1665.16,614.61 1676.51,545.82 1761.98,431.55 1757.92,430.89 1757.52,433.35 1755.51,431.86 1671.77,543.83 1661.04,608.84 1628.3,603.44 1639.11,537.86 1597.2,409.4 1631.63,415.09 1662.29,509.31 1721.62,429.96 1757.1,435.82 1757.52,433.35 1755.51,431.86 "/>
   <polygon class="fil2" points="1951.71,716.35 1982.99,732.87 2076.08,556.66 2044.81,540.13 1981.47,660.03 1984.56,508.3 1952.45,491.34 1859.35,667.55 1890.62,684.08 1954.99,562.25 "/>
   <polygon class="fil2" points="2052.32,553.09 2050.1,551.91 1999.51,647.67 1982.09,513.15 1950.79,496.64 1859.08,670.24 1896.87,690.2 1948.63,592.21 1966.25,726.85 1997.33,743.27 2089.04,569.64 2051.26,549.7 2050.1,551.91 2052.32,553.09 2051.15,555.3 2082.27,571.74 1995.24,736.5 1970.89,723.63 1951.52,576.03 1894.78,683.43 1865.84,668.15 1952.88,503.4 1977.47,516.38 1996.56,663.93 2054.53,554.26 2052.32,553.09 2051.15,555.3 "/>
   <path class="fil2 str0" d="M2151.84 812.12l-17.74 37.79 27.45 23.77 85.52 -189.57 -29.59 -25.62 -176.62 110.7 27.28 23.61 35.04 -22.82 48.66 42.14zm15.06 -32.16l-33.87 -29.33 67.94 -44.24 -34.07 73.57z"/>
   <polygon class="fil2 str0" points="2349.57,854.56 2239.95,968.8 2260.2,997.8 2404.93,933.83 2277.62,1022.74 2297.87,1051.73 2461.26,937.62 2430.75,893.93 2283.47,959.97 2395.65,843.67 2365.4,800.36 2202.01,914.48 2222.26,943.47 "/>
   <polygon class="fil2 str0" points="2431.05,1131.93 2460.72,1208.69 2492.6,1196.37 2462.92,1119.61 2505,1103.34 2537.05,1186.26 2568.93,1173.94 2524.12,1058.03 2338.23,1129.89 2384.57,1249.76 2416.44,1237.44 2382.86,1150.56 "/>
   <path class="fil0" d="M2571.67 1511.3c0,35.62 -28.88,64.49 -64.49,64.49 -35.62,0 -64.48,-28.87 -64.48,-64.49 0,-35.61 28.86,-64.48 64.48,-64.48 35.61,0 64.49,28.87 64.49,64.48z"/>
   <path class="fil0" d="M534.7 1511.3c0,35.62 -28.86,64.49 -64.48,64.49 -35.61,0 -64.49,-28.87 -64.49,-64.49 0,-35.61 28.88,-64.48 64.49,-64.48 35.62,0 64.48,28.87 64.48,64.48z"/>
   <path class="fil0" d="M2304.08 1511.3c0,442.37 -365.05,800.97 -815.38,800.97 -450.33,0 -815.39,-358.6 -815.39,-800.97 0,-442.36 365.06,-800.97 815.39,-800.97 450.33,0 815.38,358.61 815.38,800.97z"/>
   <path class="fil1" d="M1488.7 778.26c-412.14,0 -746.25,328.19 -746.25,733.04 0,404.85 334.11,733.06 746.25,733.06 412.14,0 746.25,-328.21 746.25,-733.06 0,-404.85 -334.11,-733.04 -746.25,-733.04zm0 41.41c388.64,0 704.83,310.26 704.83,691.63 0,381.36 -316.19,691.64 -704.83,691.64 -388.64,0 -704.82,-310.28 -704.82,-691.64 0,-381.37 316.18,-691.63 704.82,-691.63z"/>
   <path class="fil2" d="M1519.86 1530.05c63.51,30.62 126.42,62.63 187.98,97.03 56.5,31.56 107.68,71.59 165.89,100.17 41.77,20.51 78.59,-42.06 36.63,-62.67 -58.2,-28.59 -109.38,-68.61 -165.88,-100.18 -61.57,-34.39 -124.47,-66.4 -187.99,-97.02 -41.88,-20.2 -78.73,42.37 -36.63,62.67z"/>
   <path class="fil1" d="M2259.45 1675.95c-9.48,-62.46 -99.17,-69.2 -152.25,-97.11 1.77,-26.54 17.05,-48.17 20.54,-74.46 2.45,-18.46 -1.26,-39.69 -9.23,-56.58 -10.53,-22.31 -42.35,-55.79 -70.32,-52.07 -36.6,4.86 -56.09,71.37 -66.13,99.99 -11.36,32.4 -23.18,61.87 -47.74,86.93 -3.25,3.31 -6.5,6.44 -9.71,9.53 -57.85,-34.57 -108.22,38.48 -116.73,89.37 -7.31,43.71 23.68,122.14 75.37,101.86 10.42,25.25 27.19,48.07 50.76,65.65 55.03,41.04 182.1,56.66 216.42,-17.96l0.33 -0.95c5.94,-1.65 11.74,-4.14 17.21,-7.82 22.46,-15.02 49.29,-47.79 47.29,-77.33 27.44,-10.82 49,-37.24 44.19,-69.05z"/>
   <path class="fil2" d="M2132.29 1826.09c-21.42,43.64 -93.99,41.9 -135.65,31.42 -34.29,-8.61 -64.73,-30.56 -83.7,-60.46 -41.96,-66.08 -15.98,-145.4 35.29,-195.94 19.74,-19.46 34.91,-41.2 45.71,-66.78 12.37,-29.39 17.18,-70.41 38.08,-94.7 44.69,-51.93 82.61,19.06 72.52,62.82 -6.24,27.02 -20.41,48.39 -20.02,77.03 0.24,17.5 27.46,17.56 27.22,0 -0.65,-47.47 33.22,-81.37 15.72,-130.63 -9.78,-27.53 -41.91,-66.53 -74.91,-64.22 -32,2.23 -52.64,54.84 -62.33,79.88 -12.36,31.99 -20.03,64.87 -40.42,93.13 -15.27,21.17 -37.42,35.57 -52.27,56.9 -49.59,71.31 -42.28,176.67 24.43,233.97 56.06,48.14 194.56,71.33 233.83,-8.68 7.7,-15.67 -15.76,-29.48 -23.5,-13.74z"/>
   <path class="fil2" d="M2066 1574.74c17.53,18.81 38.36,30.99 62.24,40.25 34.33,13.3 101.18,21.27 109.77,63.87 13.47,66.76 -84.51,38.27 -119.01,24.78 -9.04,-3.55 -17.6,-7.13 -25.94,-12.1 -18.12,-10.81 -18.7,-11.44 -19.09,-35 -0.39,-23.64 -0.15,-24.78 19.39,-33.09 7.9,-3.36 15.4,-5.14 23.82,-6.66 17.21,-3.13 9.92,-29.36 -7.23,-26.25 -41.56,7.54 -87.01,37.89 -68.44,86.14 10.31,26.74 40.33,41.61 65.23,51.74 27.41,11.16 68.36,26.52 98.67,24.1 42.53,-3.39 78.6,-49.87 59.99,-90.35 -30.97,-67.36 -133.45,-56.57 -180.15,-106.68 -11.97,-12.84 -31.19,6.45 -19.25,19.25z"/>
   <path class="fil2" d="M2196.21 1742.81c4.53,47.31 -46.08,76.14 -85.56,63.92 -14.21,-4.39 -27.63,-11.73 -39.83,-20.17 -28.67,-19.87 -42.69,-60.32 0.13,-72.31 16.85,-4.7 9.7,-30.97 -7.23,-26.24 -26.47,7.4 -49.41,30.54 -50.67,59.47 -1.58,35.62 36.83,60.76 64.81,75.04 28.99,14.79 67.65,25.31 96.85,6.29 27.07,-17.63 51.87,-52.96 48.71,-86 -1.65,-17.28 -28.89,-17.47 -27.21,0z"/>
   <path class="fil2" d="M1922.45 1589.22c-61.93,-38.86 -116,44.35 -122.77,97.64 -5.79,45.45 31.97,135.73 91.34,94.88 14.35,-9.87 0.74,-33.46 -13.74,-23.51 -46.54,32.03 -53.36,-61.28 -47.62,-82.85 7.7,-29.04 40.19,-87.04 79.05,-62.66 14.89,9.34 28.56,-14.2 13.74,-23.5z"/>
   <path class="fil2" d="M2070.44 1860.34c-23.42,-0.56 -44.23,-10.29 -62.7,-24.28 -12.16,-9.19 -17.21,-19.48 -12.88,-34.8 4.57,-16.13 17.59,-18.65 32.27,-14.52 16.88,4.76 24.09,-21.49 7.23,-26.24 -16.81,-4.74 -36.4,-5.04 -50.45,6.94 -14.49,12.37 -21.3,38.03 -17.76,56.39 3.98,20.64 23.05,33.58 39.86,43.95 19.74,12.15 41.23,19.22 64.43,19.77 17.53,0.42 17.52,-26.8 0,-27.21z"/>
   <path class="fil0" d="M1802.13 437.83c0,0 199.8,108.73 205.6,183.66l-237.01 196.61c0,0 35.7,142.3 -50.27,419.23 -85.96,276.94 -86.73,405.19 -22.5,508.4 42.43,68.18 163.49,260.95 220.71,446.29 -122.04,76.63 -263.54,123.2 -406.48,125.03 -33.2,0.43 -67.05,-1.5 -101.17,-5.54 -124.46,-150.45 -260.06,-386.94 -304.54,-652.53 -65.52,-391.13 116.74,-705.6 152.41,-754.45 35.67,-48.85 58.39,-162.87 372.39,-205.61 0,0 107.77,-86.07 152.15,-210.04l18.71 -51.05z"/>
   <path class="fil1" d="M1159.7 1718.25c-25.23,-141.41 -26.84,-281.78 2.97,-419.2 2.02,-12.05 4.17,-24.05 6.55,-35.96 7.91,-39.49 17.98,-78.53 30.25,-116.88 26.22,-81.89 59.54,-172.09 111.88,-241.68 35.12,-48.1 57.91,-159.35 358.44,-203.56 61.42,-59.26 115.54,-126.07 160.85,-198.41 1.83,-4.51 3.6,-9.06 5.25,-13.68l6.28 -17.15c-32.09,-20.54 -56.61,-33.9 -56.61,-33.9l-18.71 51.05c-44.38,123.97 -152.15,210.04 -152.15,210.04 -313.99,42.74 -336.72,156.76 -372.39,205.61 -52.33,69.59 -85.66,159.79 -111.87,241.68 -12.28,38.35 -22.35,77.39 -30.25,116.88 -67.26,335.75 12.39,727.58 238.75,989.52 -52.52,-120.6 -102.41,-242.74 -139.58,-368.82 2.29,0.95 4.6,1.7 6.93,2.34 -18.17,-56.31 -32.2,-114.17 -42.13,-172.71 -1.52,1.55 -3.07,3.08 -4.46,4.83z"/>
   <path class="fil3" d="M1316.23 2181.99l-0.01 0c-7.53,-11.6 -15.01,-23.47 -22.41,-35.59l0 0c7.4,12.11 14.89,23.99 22.42,35.59z"/>
   <path class="fil1" d="M1340.83 2218.68c-8.25,-11.91 -16.46,-24.14 -24.61,-36.69l0.01 0c8.15,12.55 16.35,24.77 24.6,36.69 0,0 0,0 0,0z"/>
   <path class="fil3" d="M1340.83 2218.68c-8.25,-11.92 -16.45,-24.14 -24.6,-36.69 -7.53,-11.6 -15.02,-23.48 -22.42,-35.59 -35.47,-86.14 -68.14,-173.38 -94.45,-262.61 2.29,0.95 4.6,1.7 6.93,2.34l0 0c-18.17,-56.31 -32.2,-114.17 -42.13,-172.71 -1.52,1.55 -3.07,3.08 -4.46,4.83 -25.23,-141.41 -26.84,-281.78 2.97,-419.2 2.02,-12.05 4.17,-24.05 6.55,-35.96 7.91,-39.49 17.98,-78.53 30.25,-116.88 26.22,-81.89 59.54,-172.09 111.88,-241.68 35.12,-48.1 57.91,-159.35 358.44,-203.56 61.42,-59.26 115.54,-126.07 160.85,-198.41 1.83,-4.51 3.6,-9.06 5.25,-13.68l6.28 -17.15c-17.43,-11.16 -32.64,-20.2 -42.89,-26.13l2.85 -7.77 0 0c0.3,0.17 27.43,14.96 61.86,37.29 -55.96,95.82 -127.31,182.61 -210.36,256.19 -35.23,31.2 -65.21,60.18 -107.47,76.69 -2.55,24.59 -25.57,53.07 -60.45,71.29 -40.92,21.36 -89.25,14.31 -127.78,42.38 -24.38,17.77 -40.65,45.19 -57.25,69.63 -19.49,28.7 -33.08,64.51 -48.18,95.74 -98.39,203.51 -114.6,416.17 -76.24,631.21 7.95,-9.95 18.1,-16.89 29.98,-19.41 3.29,-0.69 6.59,-1.03 9.89,-1.03 33.1,0 65.7,33.98 75.69,81.23 11,51.96 -9.5,100.31 -45.78,107.98 -3.21,0.68 -6.44,1 -9.67,1 -6.9,0 -13.77,-1.49 -20.44,-4.23 33.69,114.27 77.83,225.31 124.9,334.89z"/>
   <path class="fil1" d="M1293.81 2146.4c-83.33,-136.48 -156.8,-305.11 -187.34,-487.42 -4.99,-29.85 -8.56,-59.23 -10.84,-88.09 -5.81,-104.31 1.23,-208.5 21.13,-307.8 7.9,-39.49 17.97,-78.53 30.24,-116.88 0.11,-0.31 0.2,-0.62 0.3,-0.93 41.47,-129.17 94.11,-216.82 111.58,-240.75l0 0c34.95,-47.87 57.48,-158.33 353.88,-202.96 6.05,-0.91 12.22,-1.79 18.51,-2.65 0,0 107.77,-86.07 152.15,-210.04l15.86 -43.28c10.25,5.93 25.46,14.97 42.89,26.13l-6.28 17.15c-1.65,4.62 -3.42,9.17 -5.25,13.68 -45.31,72.34 -99.43,139.15 -160.85,198.41 -300.53,44.21 -323.32,155.46 -358.44,203.56 -52.34,69.59 -85.66,159.79 -111.88,241.68 -12.27,38.35 -22.34,77.39 -30.25,116.88 -2.38,11.91 -4.53,23.91 -6.55,35.96 -29.81,137.42 -28.2,277.79 -2.97,419.2 1.39,-1.75 2.94,-3.28 4.46,-4.83 9.93,58.54 23.96,116.4 42.13,172.71 -2.33,-0.64 -4.64,-1.39 -6.93,-2.34 26.31,89.23 58.98,176.47 94.45,262.61l0 0z"/>
   <path class="fil2" d="M1799.86 379.88c-6.16,0.24 -12.3,1.46 -18.2,3.69 -15.77,5.95 -28.19,18.48 -33.99,34.32l-18.7 51.05 -0.15 0.39c-30.07,84.01 -96.42,150.56 -122.71,174.59 -262.58,39.07 -335.37,127.89 -382.87,208.42 -4.34,7.38 -8.1,13.76 -11.19,18 -23.9,32.72 -80.28,130.37 -122.66,265.73 -55.9,178.54 -69.4,357.69 -40.11,532.48 38.41,229.35 137.61,419.39 214.05,538.42 20.11,31.32 41.17,61.57 62.69,90.23 28.4,6.2 56.79,10.97 84.99,14.31 -124.46,-150.45 -260.06,-386.95 -304.54,-652.53 -65.52,-391.13 116.74,-705.6 152.41,-754.45 35.67,-48.85 58.39,-162.87 372.39,-205.61 0,0 107.77,-86.07 152.15,-210.04l18.71 -51.05c0,0 199.8,108.73 205.6,183.66l-237.01 196.61c0,0 35.7,142.3 -50.27,419.23 -85.96,276.95 -86.73,405.19 -22.5,508.4 42.43,68.18 163.49,260.95 220.71,446.29 17.13,-10.76 33.88,-22.11 50.2,-34.01 -40.69,-123.52 -113.6,-269.34 -219.33,-439.15l-2.34 -3.76c-48.3,-77.63 -59.1,-177.88 28.65,-460.57 65.35,-210.54 63.5,-349.93 57.03,-412.64l211.88 -175.76c14.5,-12.02 22.24,-30.34 20.79,-49.11 -3.89,-50.26 -44.84,-101.88 -128.86,-162.49 -53.05,-38.26 -104.67,-66.46 -106.84,-67.64 -3.06,-1.66 -6.24,-3.04 -9.49,-4.11 -6.76,-1.02 -13.55,-2.02 -20.49,-2.9z"/>
   <path class="fil4" d="M1856.18 2227.72c-17.63,-21.43 -34.87,-43.19 -51.68,-65.33 -161.99,-213.36 -283.44,-465.67 -300.04,-733.04 -16.61,-267.36 83.87,-549.69 296.48,-712.65 60.93,-46.69 131.75,-85.48 189.15,-135.25 10.1,13.85 16.66,27.43 17.64,40.04l-237.01 196.61 0 0c0,0 7.36,29.35 7.35,87.31 -0.02,69.69 -10.69,180.75 -57.62,331.92 -46.34,149.29 -67.92,255.37 -67.91,337.61l0 0c0.01,68.99 15.21,121.19 43.74,168.07 0.56,0.91 1.11,1.82 1.67,2.72l0 0c3.42,5.49 7.35,11.8 11.71,18.82 0.01,0.02 0.02,0.04 0.03,0.05 0.07,0.11 0.14,0.23 0.21,0.34 49.91,80.53 156.24,256.93 208.75,427.09 -1.82,1.14 -3.63,2.31 -5.46,3.44l-0.61 0.38c-5.03,3.1 -10.1,6.16 -15.2,9.16l-0.66 0.39zm-15.73 9.02l-0.03 0.02c-5.38,2.99 -10.77,5.96 -16.2,8.83l-0.02 0.01c-2.84,1.51 -5.71,2.96 -8.56,4.44z"/>
   <path class="fil5" d="M1709.9 1764.94c-0.07,-0.11 -0.14,-0.23 -0.21,-0.34 0.07,0.11 0.14,0.23 0.21,0.34zm-0.24 -0.39c-4.36,-7.02 -8.29,-13.33 -11.71,-18.82 3.42,5.49 7.35,11.79 11.71,18.82zm-13.38 -21.54c-28.53,-46.88 -43.73,-99.08 -43.74,-168.07 0.01,68.99 15.21,121.19 43.74,168.07zm24.17 -505.68l0 0c46.93,-151.17 57.6,-262.23 57.62,-331.92 -0.02,69.69 -10.69,180.75 -57.62,331.92l0 0zm50.27 -419.23l0 0 237.01 -196.61 0 0 -237.01 196.61z"/>
   <path class="fil2" d="M1518.02 1463.98c11.37,-11.81 36,-14.16 45.41,-0.44 9.6,14 1.72,35.18 -4.95,48.85 -5.22,10.7 -12.29,22.07 -22.87,28.17 -15.49,8.93 -41.38,1.65 -33.11,-19.74 5.43,-14.06 -17.19,-20.14 -22.56,-6.22 -9.66,25.01 8.6,50.72 34.47,53.55 29.51,3.21 52.16,-19.34 64.27,-43.96 12.43,-25.27 20.73,-59.75 -1.68,-82.28 -19.94,-20.05 -57.14,-13.58 -75.53,5.54 -10.45,10.84 6.08,27.41 16.55,16.53z"/>
   <path class="fil2" d="M1182.64 1536.37c-75.41,-24.97 -154.93,-37.2 -234.42,-34.11 -67.33,2.63 -158.88,9.45 -214.86,50.95 -50.48,37.44 -48.26,107.55 -13.37,154.86 44.79,60.73 130.86,96.13 196.98,127.65 41.96,20.01 78.83,-42.55 36.64,-62.67 -49.38,-23.54 -100.04,-48.44 -144.89,-80.01 -19.55,-13.76 -46.85,-36.86 -41.67,-64.07 5.19,-27.16 44.31,-32.33 66.99,-37.98 109.23,-27.17 222.89,-19.87 329.3,15.37 44.45,14.71 63.5,-55.36 19.3,-69.99z"/>
   <path class="fil2" d="M1785.81 476.03c9.76,28.08 43.28,40.54 58.65,65.99 2.07,3.42 3.83,7.25 3.61,11.24 -0.23,4.15 -2.55,7.86 -4.81,11.35 -12.3,19.11 -24.6,38.22 -36.91,57.33 36.84,-21.45 78.23,-39.93 120.62,-35.35 29.33,3.16 56.3,17.12 81.83,31.9 6.62,3.83 13.83,7.87 21.4,6.88 0.33,-8.76 -5.02,-16.59 -10.13,-23.71 -29.52,-41.12 -59.41,-82.64 -97.49,-116 -25.64,-22.46 -55.31,-41.06 -87.93,-51.46 -10.26,-3.28 -33.71,-12.69 -43.86,-5.91 -11.65,7.79 -8.84,36.63 -4.98,47.74z"/>
   <path class="fil2" d="M1785.81 476.03l-3.43 1.19c5.29,15.14 16.73,25.68 28.31,35.56 11.62,9.86 23.48,19.17 30.66,31.11l0 0.01c1.84,3 3.14,6.05 3.11,8.68l-0.01 0.48 0 0c-0.12,2.89 -1.96,6.12 -4.24,9.59l-0.06 0.09 0.06 -0.09c-12.3,19.11 -24.61,38.21 -36.91,57.32l-8.18 12.7 13.06 -7.6c32.79,-19.11 68.95,-35.58 105.6,-35.56 4.26,0 8.53,0.23 12.8,0.68 28.42,3.06 54.97,16.7 80.39,31.44 5.97,3.41 12.83,7.47 20.88,7.52 0.93,0 1.87,-0.06 2.83,-0.19l3.04 -0.39 0.11 -3.07 0.02 -0.91c-0.07,-10 -5.89,-18.09 -10.83,-25.05 -29.53,-41.12 -59.56,-82.87 -98.05,-116.6 -25.93,-22.73 -56.01,-41.61 -89.22,-52.2 -3.69,-1.18 -9.44,-3.28 -15.7,-5.1 -6.29,-1.8 -13.1,-3.36 -19.39,-3.38 -4.26,0.02 -8.41,0.71 -11.89,3.02 -4.12,2.78 -6.51,7.21 -7.97,12.03 -1.45,4.86 -1.97,10.29 -1.98,15.69 0.02,9.35 1.59,18.5 3.56,24.22l3.43 -1.19 3.43 -1.2c-1.62,-4.58 -3.17,-13.36 -3.16,-21.83 0,-4.91 0.51,-9.74 1.67,-13.62 1.16,-3.9 2.94,-6.68 5.06,-8.06 1.67,-1.15 4.4,-1.81 7.85,-1.8 5.05,-0.01 11.41,1.37 17.37,3.1 5.99,1.72 11.57,3.77 15.52,5.03 32.03,10.21 61.3,28.54 86.64,50.75 37.67,32.98 67.42,74.25 96.93,115.37 4.99,6.86 9.54,13.94 9.47,20.82l-0.01 0.64 3.62 0.14 -0.47 -3.6 -1.88 0.12c-5.38,0.06 -11.34,-3.09 -17.24,-6.54 -25.62,-14.82 -53.01,-29.08 -83.25,-32.37 -4.54,-0.49 -9.07,-0.72 -13.58,-0.72 -38.87,0.02 -76.04,17.22 -109.26,36.54l1.83 3.14 3.05 1.96c12.3,-19.11 24.61,-38.21 36.92,-57.32l-0.01 0c2.24,-3.52 5.04,-7.69 5.38,-13.12l0 -0.01 0.03 -0.87c-0.03,-4.85 -2.08,-8.99 -4.15,-12.44l0 0c-8.18,-13.5 -20.76,-23.15 -32.19,-32.89 -11.47,-9.75 -21.67,-19.48 -26.14,-32.42l-3.43 1.2z"/>
   <path class="fil1" d="M1337.69 1697.98c-27.59,-56.83 -115.25,-36.62 -174.22,-47.51 -6.19,-25.85 1.98,-51.06 -2.5,-77.18 -3.14,-18.37 -13,-37.54 -25.63,-51.29 -16.68,-18.18 -57.01,-40.69 -82.62,-28.83 -33.5,15.51 -32.34,84.81 -33.42,115.12 -1.23,34.31 -3.77,65.96 -19.77,97.18 -2.12,4.13 -4.28,8.09 -6.44,12 -65.49,-15.82 -91.9,68.88 -84.91,120.01 6.02,43.91 58.91,109.59 102.23,74.86 17.47,21.02 40.24,37.82 67.97,47.61 64.75,22.84 190.72,0 201.32,-81.44l0.03 -1.02c5.19,-3.33 9.97,-7.44 14.11,-12.57 16.99,-21.02 32.86,-60.28 22.17,-87.89 22.99,-18.49 35.73,-50.11 21.68,-79.05z"/>
   <path class="fil2" d="M1261.04 1878.55c-12.27,78.61 -149.5,82.3 -201.76,49.96 -73.55,-45.52 -78.46,-139.44 -41.27,-209 32.27,-60.35 15.49,-122.04 33.94,-185.16 7.12,-24.37 10.04,-31.63 35.01,-23.47 18.94,6.18 33.65,19.69 42.46,37.31 17.09,34.21 1.66,73.22 12.47,109.21 5.02,16.75 31.29,9.61 26.24,-7.23 -14.58,-48.6 8.06,-93.12 -28.74,-135.83 -17.31,-20.09 -60.6,-45.92 -88.35,-32.34 -28.31,13.86 -31.78,70.54 -33.45,97.42 -2.06,33.32 0.34,66.73 -10.7,98.89 -9.35,27.27 -28.48,49.14 -35.23,77.32 -19.89,83.01 16.83,175.05 97.78,208.46 66.86,27.59 204.35,8.17 217.84,-78.3 2.67,-17.14 -23.55,-24.52 -26.24,-7.24z"/>
   <path class="fil2" d="M1122.38 1658.51c33.5,18.59 67.81,20.49 105.45,21.02 23.98,0.34 60.05,-2.59 79.3,13.17 21.06,17.22 21.34,38 5.04,58.9 -9.61,12.32 -24.26,16.3 -39.09,14.45 -17.34,-2.15 -17.19,25.09 0,27.22 49.21,6.13 99.67,-50.09 74.87,-98.9 -34.73,-68.38 -156.43,-28.61 -211.83,-59.37 -15.33,-8.5 -29.07,15 -13.74,23.51z"/>
   <path class="fil2" d="M1298.42 1783.42c11.43,18.95 -5.79,57.82 -19.9,71.6 -14.38,14.04 -39.72,13.08 -58.36,11.37 -17.43,-1.61 -17.33,25.62 0,27.22 30.53,2.8 64.01,-0.95 83.74,-26.82 18.46,-24.18 35.19,-68.64 18.02,-97.1 -9.04,-14.99 -32.58,-1.32 -23.5,13.73z"/>
   <path class="fil2" d="M990.71 1715.42c-70.31,-18.61 -97.19,74.1 -89.09,127.32 6.98,45.76 70.66,122.88 115.29,66.14 10.71,-13.62 -8.42,-33 -19.25,-19.24 -17.81,22.65 -50.98,-3.65 -60.01,-20.93 -7.57,-14.5 -10.61,-32.65 -10.73,-48.9 -0.22,-27.91 14.54,-89.26 56.55,-78.15 16.95,4.49 24.18,-21.76 7.24,-26.24z"/>
   <path class="fil2" d="M1019.44 1826.87c-0.08,1.39 -0.11,2.78 -0.11,4.17 0.06,31.58 17.63,62.17 45.15,77.87 3.49,1.98 7.92,0.75 9.9,-2.73 1.98,-3.49 0.75,-7.93 -2.74,-9.9 -22.74,-12.82 -37.86,-39.11 -37.8,-65.24 0,-1.15 0.03,-2.29 0.09,-3.44 0.2,-4 -2.88,-7.42 -6.88,-7.61 -4.01,-0.2 -7.42,2.88 -7.61,6.88z"/>
   <path class="fil2" d="M1232.76 1708.41c3.43,-0.52 6.89,-0.78 10.37,-0.78 11.67,-0.01 23.41,2.94 33.62,8.52 3.53,1.92 7.93,0.63 9.85,-2.89 1.92,-3.52 0.62,-7.93 -2.9,-9.85 -12.41,-6.78 -26.47,-10.29 -40.57,-10.29 -4.2,0 -8.4,0.31 -12.56,0.94 -3.96,0.61 -6.69,4.31 -6.08,8.27 0.6,3.97 4.31,6.69 8.27,6.08l0 0z"/>
   <path class="fil2" d="M1479.29 1526.04c-3.07,20.75 -1.54,40.93 5.6,60.73 3.79,10.54 20.76,5.99 16.92,-4.67 -6,-16.64 -8.2,-33.82 -5.6,-51.4 1.64,-11.04 -15.27,-15.81 -16.92,-4.66z"/>
   <path class="fil2" d="M1516.3 1505.4c-1.33,3.82 -2.39,7.99 -1.27,11.88 1.72,5.95 8.69,9.51 14.78,8.3 6.08,-1.22 10.89,-6.46 12.57,-12.44 1.68,-5.97 0.56,-12.48 -2.07,-18.1 -1.37,-2.94 -3.19,-5.81 -3.44,-9.04 -0.41,-5.23 8.68,-14.37 5.81,-18.12 -6.03,2.53 -11.86,11.22 -15.57,16.48 -4.54,6.48 -8.21,13.58 -10.81,21.04z"/>
   <path class="fil2" d="M1489.9 1622.42c11.66,3.99 23.59,4.56 35.67,2.45 11.11,-1.93 6.4,-18.84 -4.67,-16.92 -8.99,1.57 -17.74,0.5 -26.33,-2.45 -10.71,-3.67 -15.31,13.28 -4.67,16.92z"/>
   <path class="fil2" d="M1617.9 1454.68c6.61,-6.95 15.08,-11.77 24.72,-12.9 4.73,-0.55 8.71,-3.64 8.77,-8.77 0.04,-4.32 -4.08,-9.33 -8.77,-8.78 -14.33,1.69 -27.12,7.5 -37.13,18.04 -7.77,8.19 4.62,20.62 12.41,12.41z"/>
   <path class="fil2" d="M1618.37 1503.73c9.08,-1.22 18.14,-2.45 27.21,-3.67 4.7,-0.64 7.26,-6.67 6.13,-10.79 -1.39,-5.07 -6.07,-6.77 -10.79,-6.13 -9.07,1.22 -18.14,2.45 -27.22,3.66 -4.7,0.64 -7.25,6.67 -6.12,10.8 1.39,5.07 6.08,6.76 10.79,6.13z"/>
   <path class="fil2" d="M1614.2 1553.98c7.13,3.04 13.13,7.26 18.29,13.04 3.16,3.54 9.19,3.22 12.41,0 3.51,-3.52 3.17,-8.86 0,-12.41 -6.03,-6.77 -13.5,-12.23 -21.85,-15.78 -4.35,-1.86 -9.39,-1.31 -12,3.14 -2.16,3.7 -1.22,10.13 3.15,12.01z"/>
   <path class="fil2" d="M1515.18 1424.85c3.74,-1.81 7.73,-2.64 11.86,-2.72 11.28,-0.23 11.31,-17.78 0,-17.55 -7.37,0.15 -14.1,1.91 -20.7,5.12 -4.27,2.07 -5.42,8.14 -3.15,12 2.54,4.36 7.72,5.23 11.99,3.15z"/>
   <path class="fil1" d="M1774.69 1213.17c-17.29,76.24 -66.55,130.04 -110.05,120.17 -43.49,-9.87 -64.73,-79.65 -47.44,-155.89 17.29,-76.23 66.57,-130.03 110.06,-120.16 43.49,9.86 64.72,79.65 47.43,155.88z"/>
   <path class="fil2" d="M1716.79 1019.83l0 0c-59.5,0 -115,61.52 -134.98,149.6 -9.74,42.92 -9.17,86.04 1.6,121.42 12.73,41.83 39.41,70.22 73.2,77.88 6.05,1.37 12.27,2.06 18.49,2.06 59.5,0 115,-61.51 134.99,-149.59 9.73,-42.92 9.16,-86.04 -1.61,-121.42 -12.73,-41.84 -39.41,-70.23 -73.21,-77.89 -6.03,-1.37 -12.25,-2.06 -18.48,-2.06zm0 36.29c3.51,0 7.01,0.38 10.47,1.17 43.49,9.86 64.72,79.65 47.43,155.88 -15.91,70.17 -58.92,121.34 -99.59,121.34 -3.51,0 -7,-0.39 -10.46,-1.17 -43.49,-9.87 -64.73,-79.65 -47.44,-155.89 15.91,-70.17 58.93,-121.33 99.59,-121.33z"/>
   <path class="fil2" d="M1750.56 1212.04c-20.19,55.21 -60.71,91.15 -90.52,80.26 -29.8,-10.9 -37.61,-64.5 -17.42,-119.71 20.18,-55.22 60.71,-91.15 90.51,-80.26 29.81,10.89 37.61,64.49 17.43,119.71z"/>
   <path class="fil1" d="M1759.77 1135.08c-7.59,21.68 -23.53,35.84 -35.59,31.61 -12.07,-4.22 -15.7,-25.23 -8.11,-46.91 7.59,-21.69 23.53,-35.85 35.6,-31.62 12.07,4.22 15.69,25.23 8.1,46.92z"/>
   <path class="fil2" d="M1617.11 1379.93c20.57,-2.35 48.61,-5.76 62.26,13.65 13.38,19.02 3.76,41.31 -15.01,51.7 -20.45,11.3 -2.16,42.65 18.32,31.33 32.56,-18.01 48.62,-56.86 33.18,-91.78 -17.53,-39.64 -60.12,-45.61 -98.75,-41.19 -22.93,2.62 -23.2,38.94 0,36.29z"/>
   <path class="fil2" d="M1424.79 940.67c47.97,-13.44 95.56,-0.25 130.12,35.55 32.51,33.67 83.79,-17.69 51.32,-51.31 -52.06,-53.94 -128.63,-74.43 -200.74,-54.23 -44.91,12.58 -25.83,82.63 19.3,69.99z"/>
   <path class="fil2" d="M1739.72 974.27c41.96,-17.45 83.24,-14.75 121.48,10.41 39.14,25.74 75.55,-37.09 36.64,-62.67 -52.32,-34.42 -119.37,-41.87 -177.42,-17.73 -18.23,7.58 -30.79,23.98 -25.34,44.64 4.51,17.14 26.56,32.87 44.64,25.35z"/>
   <path class="fil1" d="M1506.93 1181.53c-17.29,76.23 -66.57,130.03 -110.05,120.17 -43.5,-9.87 -64.74,-79.66 -47.45,-155.89 17.29,-76.23 66.57,-130.03 110.05,-120.17 43.49,9.87 64.74,79.66 47.45,155.89z"/>
   <path class="fil2" d="M1449.03 988.19l-0.01 0c-59.5,0 -115.01,61.52 -134.98,149.59 -22.42,98.86 9.74,184.55 74.8,199.31 6.05,1.37 12.27,2.06 18.5,2.06 59.49,0 114.99,-61.51 134.98,-149.59 22.41,-98.87 -9.74,-184.55 -74.8,-199.31 -6.05,-1.37 -12.27,-2.06 -18.49,-2.06zm-0.01 36.28c3.51,0 7.01,0.39 10.46,1.17 43.49,9.87 64.74,79.66 47.45,155.89 -15.92,70.17 -58.93,121.33 -99.59,121.33 -3.51,0 -7.01,-0.38 -10.46,-1.16 -43.5,-9.87 -64.74,-79.66 -47.45,-155.89 15.92,-70.17 58.93,-121.33 99.59,-121.34z"/>
   <path class="fil2" d="M1475.36 1167.78c-20.18,55.23 -60.7,91.16 -90.5,80.26 -29.81,-10.88 -37.62,-64.48 -17.43,-119.71 20.18,-55.21 60.71,-91.15 90.51,-80.25 29.81,10.9 37.61,64.49 17.42,119.7z"/>
   <path class="fil2" d="M1310.46 1354.87c35.36,-8.21 90.91,-18.6 103.49,28.36 9.64,36 -18.85,63.98 -48.89,77.21 -21.33,9.39 -2.88,40.67 18.31,31.34 48.42,-21.34 82.22,-72.91 63.04,-126.03 -22.58,-62.52 -92.52,-58.19 -145.6,-45.87 -22.74,5.27 -13.11,40.28 9.65,34.99z"/>
   <path class="fil1" d="M1484.51 1094.65c-7.59,21.7 -23.53,35.85 -35.6,31.62 -12.07,-4.22 -15.7,-25.22 -8.11,-46.91 7.59,-21.69 23.53,-35.84 35.6,-31.62 12.07,4.22 15.7,25.23 8.11,46.91z"/>
  </g>
 </g>
</svg>
